<svg t="1688108662219" class="icon" viewBox="0 0 1024 1024" version="1.1"
  xmlns="http://www.w3.org/2000/svg" p-id="2351" width="50" height="50">
  <path d="M988.595745 624.340426a34.042553 34.042553 0 0 0-34.042554 34.042553V953.191489H69.446809V658.382979a34.042553 34.042553 0 0 0-68.085107 0v331.574468a34.042553 34.042553 0 0 0 34.042553 34.042553h953.19149a34.042553 34.042553 0 0 0 34.042553-34.042553V658.382979a34.042553 34.042553 0 0 0-34.042553-34.042553z" fill="#2c2c2c" p-id="2352"></path>
  <path d="M488.170213 792.510638a34.042553 34.042553 0 0 0 48.340425 0l151.829788-151.829787a34.042553 34.042553 0 1 0-48.340426-48.340425L546.042553 686.297872V34.042553a34.042553 34.042553 0 0 0-68.085106 0v652.255319L384 593.021277a34.042553 34.042553 0 0 0-48.340426 48.340425z" fill="#2c2c2c" p-id="2353"></path>
</svg>